<mxfile host="app.diagrams.net" modified="2021-05-10T23:11:15.384Z" agent="5.0 (Windows NT 10.0; Win64; x64) AppleWebKit/537.36 (KHTML, like Gecko) Chrome/89.0.4389.114 Safari/537.36" etag="2qJ9vadiGpZsui-KEG2m" version="14.6.11" type="github">
  <diagram id="0VQkLCU9H9QMLE1RHV6R" name="Page-1">
    <mxGraphModel dx="2272" dy="762" grid="1" gridSize="10" guides="1" tooltips="1" connect="1" arrows="1" fold="1" page="1" pageScale="1" pageWidth="850" pageHeight="1100" background="#114B5F" math="0" shadow="0">
      <root>
        <mxCell id="0" />
        <mxCell id="1" parent="0" />
        <mxCell id="Z-240J1SGFox5FOLwqvj-9" style="edgeStyle=orthogonalEdgeStyle;orthogonalLoop=1;jettySize=auto;html=1;strokeColor=#028090;fontColor=#E4FDE1;strokeWidth=3;labelBackgroundColor=#114B5F;" edge="1" parent="1" source="Z-240J1SGFox5FOLwqvj-3" target="Z-240J1SGFox5FOLwqvj-5">
          <mxGeometry relative="1" as="geometry" />
        </mxCell>
        <mxCell id="Z-240J1SGFox5FOLwqvj-3" value="Declares Attack" style="whiteSpace=wrap;html=1;fillColor=#F45B69;strokeColor=#028090;fontColor=#E4FDE1;rounded=1;" vertex="1" parent="1">
          <mxGeometry x="-85" y="30" width="120" height="60" as="geometry" />
        </mxCell>
        <mxCell id="Z-240J1SGFox5FOLwqvj-11" value="" style="edgeStyle=orthogonalEdgeStyle;orthogonalLoop=1;jettySize=auto;html=1;strokeColor=#028090;fontColor=#E4FDE1;strokeWidth=3;labelBackgroundColor=#114B5F;" edge="1" parent="1" source="Z-240J1SGFox5FOLwqvj-5" target="Z-240J1SGFox5FOLwqvj-10">
          <mxGeometry relative="1" as="geometry" />
        </mxCell>
        <mxCell id="Z-240J1SGFox5FOLwqvj-5" value="Triggers Attack" style="swimlane;fontStyle=0;childLayout=stackLayout;horizontal=1;startSize=26;horizontalStack=0;resizeParent=1;resizeParentMax=0;resizeLast=0;collapsible=1;marginBottom=0;strokeColor=#028090;fontColor=#E4FDE1;fillColor=#F45B69;swimlaneLine=1;strokeWidth=4;rounded=1;" vertex="1" parent="1">
          <mxGeometry x="-125" y="140" width="200" height="104" as="geometry" />
        </mxCell>
        <mxCell id="Z-240J1SGFox5FOLwqvj-6" value="When this card attacks" style="text;strokeColor=none;align=left;verticalAlign=top;spacingLeft=4;spacingRight=4;overflow=hidden;rotatable=0;points=[[0,0.5],[1,0.5]];portConstraint=eastwest;fontColor=#E4FDE1;rounded=1;" vertex="1" parent="Z-240J1SGFox5FOLwqvj-5">
          <mxGeometry y="26" width="200" height="26" as="geometry" />
        </mxCell>
        <mxCell id="Z-240J1SGFox5FOLwqvj-7" value="When this card is attacked" style="text;strokeColor=none;align=left;verticalAlign=top;spacingLeft=4;spacingRight=4;overflow=hidden;rotatable=0;points=[[0,0.5],[1,0.5]];portConstraint=eastwest;fontColor=#E4FDE1;rounded=1;" vertex="1" parent="Z-240J1SGFox5FOLwqvj-5">
          <mxGeometry y="52" width="200" height="26" as="geometry" />
        </mxCell>
        <mxCell id="Z-240J1SGFox5FOLwqvj-8" value="When a card attacks (Blocker)" style="text;strokeColor=none;align=left;verticalAlign=top;spacingLeft=4;spacingRight=4;overflow=hidden;rotatable=0;points=[[0,0.5],[1,0.5]];portConstraint=eastwest;fontColor=#E4FDE1;strokeWidth=9;rounded=1;" vertex="1" parent="Z-240J1SGFox5FOLwqvj-5">
          <mxGeometry y="78" width="200" height="26" as="geometry" />
        </mxCell>
        <mxCell id="Z-240J1SGFox5FOLwqvj-13" value="" style="edgeStyle=orthogonalEdgeStyle;orthogonalLoop=1;jettySize=auto;html=1;strokeColor=#028090;fontColor=#E4FDE1;strokeWidth=3;labelBackgroundColor=#114B5F;" edge="1" parent="1" source="Z-240J1SGFox5FOLwqvj-10" target="Z-240J1SGFox5FOLwqvj-12">
          <mxGeometry relative="1" as="geometry" />
        </mxCell>
        <mxCell id="Z-240J1SGFox5FOLwqvj-10" value="Counter: Attack" style="whiteSpace=wrap;html=1;fontStyle=0;fillColor=#F45B69;startSize=26;strokeColor=#028090;strokeWidth=4;fontColor=#E4FDE1;rounded=1;" vertex="1" parent="1">
          <mxGeometry x="-85" y="280" width="120" height="60" as="geometry" />
        </mxCell>
        <mxCell id="Z-240J1SGFox5FOLwqvj-17" value="Yes" style="edgeStyle=orthogonalEdgeStyle;orthogonalLoop=1;jettySize=auto;html=1;strokeColor=#028090;fontColor=#E4FDE1;strokeWidth=3;labelBackgroundColor=#114B5F;" edge="1" parent="1" source="Z-240J1SGFox5FOLwqvj-12" target="Z-240J1SGFox5FOLwqvj-16">
          <mxGeometry relative="1" as="geometry" />
        </mxCell>
        <mxCell id="Z-240J1SGFox5FOLwqvj-12" value="Did they Counter?" style="rhombus;whiteSpace=wrap;html=1;fontStyle=0;fillColor=none;startSize=26;strokeColor=#028090;fontColor=#E4FDE1;rounded=1;" vertex="1" parent="1">
          <mxGeometry x="-65" y="410" width="80" height="80" as="geometry" />
        </mxCell>
        <mxCell id="Z-240J1SGFox5FOLwqvj-21" value="" style="edgeStyle=orthogonalEdgeStyle;orthogonalLoop=1;jettySize=auto;html=1;strokeColor=#028090;fontColor=#E4FDE1;strokeWidth=3;labelBackgroundColor=#114B5F;" edge="1" parent="1" source="Z-240J1SGFox5FOLwqvj-16" target="Z-240J1SGFox5FOLwqvj-20">
          <mxGeometry relative="1" as="geometry" />
        </mxCell>
        <mxCell id="Z-240J1SGFox5FOLwqvj-16" value="Counter: Counter" style="whiteSpace=wrap;html=1;fontStyle=0;fillColor=none;startSize=26;strokeColor=#028090;fontColor=#E4FDE1;rounded=1;" vertex="1" parent="1">
          <mxGeometry x="-245" y="420" width="120" height="60" as="geometry" />
        </mxCell>
        <mxCell id="Z-240J1SGFox5FOLwqvj-23" value="Yes" style="edgeStyle=orthogonalEdgeStyle;orthogonalLoop=1;jettySize=auto;html=1;strokeColor=#028090;fontColor=#E4FDE1;strokeWidth=3;labelBackgroundColor=#114B5F;" edge="1" parent="1" source="Z-240J1SGFox5FOLwqvj-20" target="Z-240J1SGFox5FOLwqvj-22">
          <mxGeometry relative="1" as="geometry" />
        </mxCell>
        <mxCell id="Z-240J1SGFox5FOLwqvj-25" value="No" style="edgeStyle=orthogonalEdgeStyle;orthogonalLoop=1;jettySize=auto;html=1;strokeColor=#028090;fontColor=#E4FDE1;strokeWidth=3;entryX=0.5;entryY=0;entryDx=0;entryDy=0;labelBackgroundColor=#114B5F;" edge="1" parent="1" source="Z-240J1SGFox5FOLwqvj-20" target="Z-240J1SGFox5FOLwqvj-32">
          <mxGeometry relative="1" as="geometry">
            <mxPoint x="-85" y="590" as="targetPoint" />
          </mxGeometry>
        </mxCell>
        <mxCell id="Z-240J1SGFox5FOLwqvj-20" value="Did they Counter?" style="rhombus;whiteSpace=wrap;html=1;fontStyle=0;startSize=26;strokeColor=#028090;fontColor=#E4FDE1;rounded=1;strokeWidth=4;fillColor=#F45B69;" vertex="1" parent="1">
          <mxGeometry x="-225" y="550" width="80" height="80" as="geometry" />
        </mxCell>
        <mxCell id="Z-240J1SGFox5FOLwqvj-27" value="" style="edgeStyle=orthogonalEdgeStyle;orthogonalLoop=1;jettySize=auto;html=1;strokeColor=#028090;fontColor=#E4FDE1;strokeWidth=3;labelBackgroundColor=#114B5F;" edge="1" parent="1" source="Z-240J1SGFox5FOLwqvj-22" target="Z-240J1SGFox5FOLwqvj-26">
          <mxGeometry relative="1" as="geometry" />
        </mxCell>
        <mxCell id="Z-240J1SGFox5FOLwqvj-22" value="Resolve &lt;br&gt;Counter: Counter Effects" style="whiteSpace=wrap;html=1;fontStyle=0;startSize=26;strokeColor=#028090;fontColor=#E4FDE1;rounded=1;strokeWidth=4;fillColor=#F45B69;" vertex="1" parent="1">
          <mxGeometry x="-400" y="560" width="120" height="60" as="geometry" />
        </mxCell>
        <mxCell id="Z-240J1SGFox5FOLwqvj-29" value="Yes" style="edgeStyle=orthogonalEdgeStyle;orthogonalLoop=1;jettySize=auto;html=1;strokeColor=#028090;fontColor=#E4FDE1;strokeWidth=3;entryX=0;entryY=0.5;entryDx=0;entryDy=0;labelBackgroundColor=#114B5F;" edge="1" parent="1" source="Z-240J1SGFox5FOLwqvj-26" target="Z-240J1SGFox5FOLwqvj-37">
          <mxGeometry relative="1" as="geometry">
            <mxPoint x="-530" y="910" as="targetPoint" />
            <Array as="points">
              <mxPoint x="-500" y="760" />
              <mxPoint x="-500" y="1060" />
            </Array>
          </mxGeometry>
        </mxCell>
        <mxCell id="Z-240J1SGFox5FOLwqvj-33" value="No" style="edgeStyle=orthogonalEdgeStyle;orthogonalLoop=1;jettySize=auto;html=1;strokeColor=#028090;fontColor=#E4FDE1;strokeWidth=3;labelBackgroundColor=#114B5F;" edge="1" parent="1" source="Z-240J1SGFox5FOLwqvj-26" target="Z-240J1SGFox5FOLwqvj-32">
          <mxGeometry relative="1" as="geometry" />
        </mxCell>
        <mxCell id="Z-240J1SGFox5FOLwqvj-26" value="Did the effect negate the Counter: Attack?" style="rhombus;whiteSpace=wrap;html=1;fontStyle=0;startSize=26;strokeColor=#028090;fontColor=#E4FDE1;rounded=1;fillColor=#F45B69;strokeWidth=4;" vertex="1" parent="1">
          <mxGeometry x="-420" y="680" width="160" height="160" as="geometry" />
        </mxCell>
        <mxCell id="Z-240J1SGFox5FOLwqvj-39" value="" style="edgeStyle=orthogonalEdgeStyle;curved=0;rounded=1;orthogonalLoop=1;jettySize=auto;html=1;fontColor=#E4FDE1;strokeColor=#028090;fillColor=#F45B69;align=center;strokeWidth=3;entryX=0.5;entryY=0;entryDx=0;entryDy=0;labelBackgroundColor=#114B5F;" edge="1" parent="1" source="Z-240J1SGFox5FOLwqvj-32" target="Z-240J1SGFox5FOLwqvj-37">
          <mxGeometry relative="1" as="geometry">
            <mxPoint x="-25" y="860" as="targetPoint" />
          </mxGeometry>
        </mxCell>
        <mxCell id="Z-240J1SGFox5FOLwqvj-32" value="Resolve &lt;br&gt;Counter: Attack Effects" style="whiteSpace=wrap;html=1;fontStyle=0;startSize=26;strokeColor=#028090;fontColor=#E4FDE1;rounded=1;fillColor=#F45B69;strokeWidth=4;" vertex="1" parent="1">
          <mxGeometry x="-85" y="730" width="120" height="60" as="geometry" />
        </mxCell>
        <mxCell id="Z-240J1SGFox5FOLwqvj-34" value="Did they Counter?" style="rhombus;whiteSpace=wrap;html=1;fontStyle=0;startSize=26;strokeColor=#028090;fontColor=#E4FDE1;rounded=1;fillColor=#F45B69;strokeWidth=4;" vertex="1" parent="1">
          <mxGeometry x="-65" y="410" width="80" height="80" as="geometry" />
        </mxCell>
        <mxCell id="Z-240J1SGFox5FOLwqvj-35" value="Counter: Counter" style="whiteSpace=wrap;html=1;fontStyle=0;startSize=26;strokeColor=#028090;fontColor=#E4FDE1;rounded=1;fillColor=#F45B69;strokeWidth=4;" vertex="1" parent="1">
          <mxGeometry x="-245" y="420" width="120" height="60" as="geometry" />
        </mxCell>
        <mxCell id="Z-240J1SGFox5FOLwqvj-41" value="" style="edgeStyle=orthogonalEdgeStyle;curved=0;rounded=1;orthogonalLoop=1;jettySize=auto;html=1;fontColor=#E4FDE1;strokeColor=#028090;strokeWidth=3;fillColor=#F45B69;align=center;labelBackgroundColor=#114B5F;" edge="1" parent="1" source="Z-240J1SGFox5FOLwqvj-37" target="Z-240J1SGFox5FOLwqvj-40">
          <mxGeometry relative="1" as="geometry" />
        </mxCell>
        <mxCell id="Z-240J1SGFox5FOLwqvj-37" value="Checkpoint:&lt;br&gt;Resolve any pending autos triggers Attack" style="whiteSpace=wrap;html=1;fontStyle=0;startSize=26;strokeColor=#028090;fontColor=#E4FDE1;rounded=1;fillColor=#F45B69;strokeWidth=4;" vertex="1" parent="1">
          <mxGeometry x="110" y="1030" width="120" height="60" as="geometry" />
        </mxCell>
        <mxCell id="Z-240J1SGFox5FOLwqvj-19" value="No" style="edgeStyle=orthogonalEdgeStyle;orthogonalLoop=1;jettySize=auto;html=1;strokeColor=#028090;fontColor=#E4FDE1;strokeWidth=3;align=center;labelPosition=center;verticalLabelPosition=middle;verticalAlign=middle;entryX=1;entryY=0.5;entryDx=0;entryDy=0;labelBackgroundColor=#114B5F;" edge="1" parent="1" source="Z-240J1SGFox5FOLwqvj-12" target="Z-240J1SGFox5FOLwqvj-37">
          <mxGeometry relative="1" as="geometry">
            <mxPoint x="170" y="560" as="targetPoint" />
          </mxGeometry>
        </mxCell>
        <mxCell id="Z-240J1SGFox5FOLwqvj-44" value="Yes" style="edgeStyle=orthogonalEdgeStyle;curved=0;rounded=1;orthogonalLoop=1;jettySize=auto;html=1;fontColor=#E4FDE1;strokeColor=#028090;strokeWidth=3;fillColor=#F45B69;align=center;labelBackgroundColor=none;endArrow=none;endFill=0;" edge="1" parent="1" source="Z-240J1SGFox5FOLwqvj-40">
          <mxGeometry relative="1" as="geometry">
            <mxPoint x="-77" y="1380" as="targetPoint" />
          </mxGeometry>
        </mxCell>
        <mxCell id="Z-240J1SGFox5FOLwqvj-63" value="No" style="edgeStyle=orthogonalEdgeStyle;curved=0;rounded=1;sketch=0;orthogonalLoop=1;jettySize=auto;html=1;labelBackgroundColor=none;fontColor=#E4FDE1;strokeColor=#028090;strokeWidth=3;fillColor=#F45B69;entryX=0;entryY=0.5;entryDx=0;entryDy=0;" edge="1" parent="1" target="Z-240J1SGFox5FOLwqvj-62">
          <mxGeometry relative="1" as="geometry">
            <mxPoint x="250" y="1235" as="sourcePoint" />
          </mxGeometry>
        </mxCell>
        <mxCell id="Z-240J1SGFox5FOLwqvj-40" value="Did a counter Negate the attack?" style="rhombus;whiteSpace=wrap;html=1;rounded=1;fontColor=#E4FDE1;fontStyle=0;strokeColor=#028090;strokeWidth=4;fillColor=#F45B69;startSize=26;" vertex="1" parent="1">
          <mxGeometry x="85" y="1150" width="170" height="170" as="geometry" />
        </mxCell>
        <mxCell id="Z-240J1SGFox5FOLwqvj-51" style="edgeStyle=orthogonalEdgeStyle;curved=0;rounded=1;orthogonalLoop=1;jettySize=auto;html=1;labelBackgroundColor=none;fontColor=#E4FDE1;strokeColor=#028090;strokeWidth=3;fillColor=#F45B69;align=center;" edge="1" parent="1" source="Z-240J1SGFox5FOLwqvj-43" target="Z-240J1SGFox5FOLwqvj-47">
          <mxGeometry relative="1" as="geometry" />
        </mxCell>
        <mxCell id="Z-240J1SGFox5FOLwqvj-230" style="edgeStyle=orthogonalEdgeStyle;curved=0;rounded=1;sketch=0;orthogonalLoop=1;jettySize=auto;html=1;exitX=1;exitY=0.5;exitDx=0;exitDy=0;entryX=0.5;entryY=1;entryDx=0;entryDy=0;labelBackgroundColor=none;fontColor=#FFFFFF;startArrow=classic;startFill=1;endArrow=none;endFill=0;strokeColor=#028090;strokeWidth=3;fillColor=#F45B69;" edge="1" parent="1" source="Z-240J1SGFox5FOLwqvj-43" target="Z-240J1SGFox5FOLwqvj-215">
          <mxGeometry relative="1" as="geometry" />
        </mxCell>
        <mxCell id="Z-240J1SGFox5FOLwqvj-43" value="All battle cards in each player&#39;s Combo Area are placed in their owners Drop Area" style="whiteSpace=wrap;html=1;rounded=1;fontColor=#E4FDE1;fontStyle=0;strokeColor=#028090;strokeWidth=4;fillColor=#F45B69;startSize=26;" vertex="1" parent="1">
          <mxGeometry x="-142" y="5220" width="130" height="65" as="geometry" />
        </mxCell>
        <mxCell id="Z-240J1SGFox5FOLwqvj-53" value="" style="edgeStyle=orthogonalEdgeStyle;curved=0;rounded=1;sketch=0;orthogonalLoop=1;jettySize=auto;html=1;fontColor=#E4FDE1;strokeColor=#028090;fillColor=#F45B69;strokeWidth=3;labelBackgroundColor=#114B5F;" edge="1" parent="1" source="Z-240J1SGFox5FOLwqvj-47" target="Z-240J1SGFox5FOLwqvj-52">
          <mxGeometry relative="1" as="geometry" />
        </mxCell>
        <mxCell id="Z-240J1SGFox5FOLwqvj-47" value="Triggers 2" style="swimlane;fontStyle=0;childLayout=stackLayout;horizontal=1;startSize=26;horizontalStack=0;resizeParent=1;resizeParentMax=0;resizeLast=0;collapsible=1;marginBottom=0;rounded=0;fontColor=#E4FDE1;strokeColor=#028090;fillColor=#F45B69;strokeWidth=4;" vertex="1" parent="1">
          <mxGeometry x="-147" y="5367.5" width="140" height="52" as="geometry" />
        </mxCell>
        <mxCell id="Z-240J1SGFox5FOLwqvj-48" value="End of Battle" style="text;strokeColor=none;fillColor=none;align=left;verticalAlign=top;spacingLeft=4;spacingRight=4;overflow=hidden;rotatable=0;points=[[0,0.5],[1,0.5]];portConstraint=eastwest;fontColor=#E4FDE1;" vertex="1" parent="Z-240J1SGFox5FOLwqvj-47">
          <mxGeometry y="26" width="140" height="26" as="geometry" />
        </mxCell>
        <mxCell id="Z-240J1SGFox5FOLwqvj-55" value="" style="edgeStyle=orthogonalEdgeStyle;curved=0;rounded=1;sketch=0;orthogonalLoop=1;jettySize=auto;html=1;fontColor=#E4FDE1;strokeColor=#028090;fillColor=#F45B69;strokeWidth=3;labelBackgroundColor=#114B5F;" edge="1" parent="1" source="Z-240J1SGFox5FOLwqvj-52" target="Z-240J1SGFox5FOLwqvj-54">
          <mxGeometry relative="1" as="geometry" />
        </mxCell>
        <mxCell id="Z-240J1SGFox5FOLwqvj-52" value="Checkpoint:&amp;nbsp;&lt;br&gt;Resolve any pending Auto&#39;s from Triggers 2 and &quot;At teh end of a battle where this card was used in a combo&quot; atuo&#39;s" style="whiteSpace=wrap;html=1;rounded=0;fontColor=#E4FDE1;fontStyle=0;strokeColor=#028090;strokeWidth=4;fillColor=#F45B69;startSize=26;" vertex="1" parent="1">
          <mxGeometry x="-189" y="5497.5" width="224" height="112" as="geometry" />
        </mxCell>
        <mxCell id="Z-240J1SGFox5FOLwqvj-57" value="" style="edgeStyle=orthogonalEdgeStyle;curved=0;rounded=1;sketch=0;orthogonalLoop=1;jettySize=auto;html=1;fontColor=#E4FDE1;strokeColor=#028090;fillColor=#F45B69;strokeWidth=3;labelBackgroundColor=#114B5F;" edge="1" parent="1" source="Z-240J1SGFox5FOLwqvj-54" target="Z-240J1SGFox5FOLwqvj-56">
          <mxGeometry relative="1" as="geometry" />
        </mxCell>
        <mxCell id="Z-240J1SGFox5FOLwqvj-54" value="Effects that last for the duration of a battle end for turn player" style="whiteSpace=wrap;html=1;rounded=0;fontColor=#E4FDE1;fontStyle=0;strokeColor=#028090;strokeWidth=4;fillColor=#F45B69;startSize=26;" vertex="1" parent="1">
          <mxGeometry x="-137" y="5715.5" width="120" height="60" as="geometry" />
        </mxCell>
        <mxCell id="Z-240J1SGFox5FOLwqvj-59" value="" style="edgeStyle=orthogonalEdgeStyle;curved=0;rounded=1;sketch=0;orthogonalLoop=1;jettySize=auto;html=1;fontColor=#E4FDE1;strokeColor=#028090;strokeWidth=3;fillColor=#F45B69;labelBackgroundColor=#114B5F;" edge="1" parent="1" source="Z-240J1SGFox5FOLwqvj-56" target="Z-240J1SGFox5FOLwqvj-58">
          <mxGeometry relative="1" as="geometry" />
        </mxCell>
        <mxCell id="Z-240J1SGFox5FOLwqvj-56" value="&lt;span&gt;Effects that last for the duration of a battle end for turn non-turn&lt;/span&gt;" style="whiteSpace=wrap;html=1;rounded=0;fontColor=#E4FDE1;fontStyle=0;strokeColor=#028090;strokeWidth=4;fillColor=#F45B69;startSize=26;" vertex="1" parent="1">
          <mxGeometry x="-137" y="5855.5" width="120" height="60" as="geometry" />
        </mxCell>
        <mxCell id="Z-240J1SGFox5FOLwqvj-58" value="END BATTLE" style="shape=step;perimeter=stepPerimeter;whiteSpace=wrap;html=1;fixedSize=1;rounded=0;fontColor=#E4FDE1;fontStyle=0;strokeColor=#028090;strokeWidth=4;fillColor=#F45B69;startSize=26;" vertex="1" parent="1">
          <mxGeometry x="-137" y="5985.5" width="120" height="80" as="geometry" />
        </mxCell>
        <mxCell id="Z-240J1SGFox5FOLwqvj-64" value="Yes" style="edgeStyle=orthogonalEdgeStyle;curved=0;rounded=1;sketch=0;orthogonalLoop=1;jettySize=auto;html=1;labelBackgroundColor=none;fontColor=#E4FDE1;strokeColor=#028090;strokeWidth=3;fillColor=#F45B69;endArrow=none;endFill=0;" edge="1" parent="1" source="Z-240J1SGFox5FOLwqvj-62">
          <mxGeometry relative="1" as="geometry">
            <mxPoint x="-77" y="1450" as="targetPoint" />
            <Array as="points">
              <mxPoint x="418" y="1370" />
              <mxPoint x="-77" y="1370" />
            </Array>
          </mxGeometry>
        </mxCell>
        <mxCell id="Z-240J1SGFox5FOLwqvj-66" value="No" style="edgeStyle=orthogonalEdgeStyle;curved=0;rounded=1;sketch=0;orthogonalLoop=1;jettySize=auto;html=1;labelBackgroundColor=none;fontColor=#E4FDE1;strokeColor=#028090;strokeWidth=3;fillColor=#F45B69;" edge="1" parent="1" source="Z-240J1SGFox5FOLwqvj-62" target="Z-240J1SGFox5FOLwqvj-65">
          <mxGeometry relative="1" as="geometry" />
        </mxCell>
        <mxCell id="Z-240J1SGFox5FOLwqvj-62" value="Is the number of cards attacking, or cards defending 0?" style="rhombus;whiteSpace=wrap;html=1;rounded=1;fontColor=#E4FDE1;fontStyle=0;strokeColor=#028090;strokeWidth=4;fillColor=#F45B69;startSize=26;" vertex="1" parent="1">
          <mxGeometry x="310" y="1127.5" width="215" height="215" as="geometry" />
        </mxCell>
        <mxCell id="Z-240J1SGFox5FOLwqvj-71" style="edgeStyle=orthogonalEdgeStyle;curved=0;rounded=1;sketch=0;orthogonalLoop=1;jettySize=auto;html=1;exitX=0.5;exitY=1;exitDx=0;exitDy=0;entryX=0.5;entryY=0;entryDx=0;entryDy=0;fontColor=#E4FDE1;strokeColor=#028090;fillColor=#F45B69;strokeWidth=3;labelBackgroundColor=#114B5F;" edge="1" parent="1" source="Z-240J1SGFox5FOLwqvj-65" target="Z-240J1SGFox5FOLwqvj-67">
          <mxGeometry relative="1" as="geometry" />
        </mxCell>
        <mxCell id="Z-240J1SGFox5FOLwqvj-65" value="Offense Step" style="whiteSpace=wrap;html=1;rounded=1;fontColor=#E4FDE1;fontStyle=0;strokeColor=#028090;strokeWidth=4;fillColor=#F45B69;startSize=26;" vertex="1" parent="1">
          <mxGeometry x="652.5" y="1205" width="120" height="60" as="geometry" />
        </mxCell>
        <mxCell id="Z-240J1SGFox5FOLwqvj-73" style="edgeStyle=orthogonalEdgeStyle;curved=0;rounded=1;sketch=0;orthogonalLoop=1;jettySize=auto;html=1;exitX=0.5;exitY=1;exitDx=0;exitDy=0;entryX=0.5;entryY=0;entryDx=0;entryDy=0;fontColor=#E4FDE1;strokeColor=#028090;strokeWidth=3;fillColor=#F45B69;labelBackgroundColor=#114B5F;" edge="1" parent="1" source="Z-240J1SGFox5FOLwqvj-67" target="Z-240J1SGFox5FOLwqvj-72">
          <mxGeometry relative="1" as="geometry" />
        </mxCell>
        <mxCell id="Z-240J1SGFox5FOLwqvj-67" value="Triggers Offence Step" style="swimlane;fontStyle=0;childLayout=stackLayout;horizontal=1;startSize=26;horizontalStack=0;resizeParent=1;resizeParentMax=0;resizeLast=0;collapsible=1;marginBottom=0;rounded=0;sketch=0;fontColor=#E4FDE1;strokeColor=#028090;strokeWidth=4;labelBackgroundColor=none;fillColor=#F45B69;" vertex="1" parent="1">
          <mxGeometry x="603.75" y="1330" width="217.5" height="52" as="geometry" />
        </mxCell>
        <mxCell id="Z-240J1SGFox5FOLwqvj-68" value="At the beginning of the Offence Step" style="text;strokeColor=none;fillColor=none;align=left;verticalAlign=top;spacingLeft=4;spacingRight=4;overflow=hidden;rotatable=0;points=[[0,0.5],[1,0.5]];portConstraint=eastwest;fontColor=#E4FDE1;" vertex="1" parent="Z-240J1SGFox5FOLwqvj-67">
          <mxGeometry y="26" width="217.5" height="26" as="geometry" />
        </mxCell>
        <mxCell id="Z-240J1SGFox5FOLwqvj-100" value="" style="edgeStyle=orthogonalEdgeStyle;curved=0;rounded=1;sketch=0;orthogonalLoop=1;jettySize=auto;html=1;labelBackgroundColor=none;fontColor=#E4FDE1;strokeColor=#028090;strokeWidth=3;fillColor=#F45B69;" edge="1" parent="1" source="Z-240J1SGFox5FOLwqvj-72" target="Z-240J1SGFox5FOLwqvj-99">
          <mxGeometry relative="1" as="geometry" />
        </mxCell>
        <mxCell id="Z-240J1SGFox5FOLwqvj-72" value="Turn Player Free Timing" style="swimlane;rounded=0;sketch=0;fontColor=#E4FDE1;strokeColor=#028090;fillColor=#F45B69;strokeWidth=7;" vertex="1" parent="1">
          <mxGeometry x="316.25" y="1470" width="792.5" height="720" as="geometry" />
        </mxCell>
        <mxCell id="Z-240J1SGFox5FOLwqvj-74" value="Possible Actions" style="rhombus;whiteSpace=wrap;html=1;rounded=0;sketch=0;fontColor=#E4FDE1;strokeColor=#028090;strokeWidth=7;fillColor=#F45B69;" vertex="1" parent="Z-240J1SGFox5FOLwqvj-72">
          <mxGeometry x="340" y="90" width="80" height="80" as="geometry" />
        </mxCell>
        <mxCell id="Z-240J1SGFox5FOLwqvj-83" style="edgeStyle=orthogonalEdgeStyle;curved=0;rounded=1;sketch=0;orthogonalLoop=1;jettySize=auto;html=1;exitX=0.5;exitY=1;exitDx=0;exitDy=0;entryX=0.5;entryY=0;entryDx=0;entryDy=0;labelBackgroundColor=none;fontColor=#E4FDE1;strokeColor=#028090;strokeWidth=3;fillColor=#F45B69;" edge="1" parent="Z-240J1SGFox5FOLwqvj-72">
          <mxGeometry relative="1" as="geometry">
            <mxPoint x="130" y="289.95" as="sourcePoint" />
            <mxPoint x="130" y="379.95" as="targetPoint" />
          </mxGeometry>
        </mxCell>
        <mxCell id="Z-240J1SGFox5FOLwqvj-75" value="Place a card in the combo area paying all costs" style="whiteSpace=wrap;html=1;rounded=0;fontColor=#E4FDE1;strokeColor=#028090;strokeWidth=7;fillColor=#F45B69;sketch=0;" vertex="1" parent="Z-240J1SGFox5FOLwqvj-72">
          <mxGeometry x="60" y="228.95" width="140" height="60" as="geometry" />
        </mxCell>
        <mxCell id="Z-240J1SGFox5FOLwqvj-76" value="Combo" style="edgeStyle=orthogonalEdgeStyle;curved=0;rounded=1;sketch=0;orthogonalLoop=1;jettySize=auto;html=1;fontColor=#E4FDE1;strokeColor=#028090;strokeWidth=3;fillColor=#F45B69;labelBackgroundColor=none;" edge="1" parent="Z-240J1SGFox5FOLwqvj-72">
          <mxGeometry relative="1" as="geometry">
            <mxPoint x="340.0500000000002" y="132.75000000000017" as="sourcePoint" />
            <mxPoint x="130.05000000000018" y="229.95" as="targetPoint" />
          </mxGeometry>
        </mxCell>
        <mxCell id="Z-240J1SGFox5FOLwqvj-97" style="edgeStyle=orthogonalEdgeStyle;curved=0;rounded=1;sketch=0;orthogonalLoop=1;jettySize=auto;html=1;exitX=0.5;exitY=1;exitDx=0;exitDy=0;entryX=0.5;entryY=0;entryDx=0;entryDy=0;labelBackgroundColor=none;fontColor=#E4FDE1;strokeColor=#028090;strokeWidth=3;fillColor=#F45B69;" edge="1" parent="Z-240J1SGFox5FOLwqvj-72" source="Z-240J1SGFox5FOLwqvj-77" target="Z-240J1SGFox5FOLwqvj-74">
          <mxGeometry relative="1" as="geometry">
            <Array as="points">
              <mxPoint x="380" y="690" />
              <mxPoint x="720" y="690" />
              <mxPoint x="720" y="33" />
              <mxPoint x="380" y="33" />
            </Array>
          </mxGeometry>
        </mxCell>
        <mxCell id="Z-240J1SGFox5FOLwqvj-77" value="Checkpoint:&lt;br&gt;Resolve all pending Autos" style="whiteSpace=wrap;html=1;rounded=0;fontColor=#E4FDE1;strokeColor=#028090;strokeWidth=7;fillColor=#F45B69;sketch=0;" vertex="1" parent="Z-240J1SGFox5FOLwqvj-72">
          <mxGeometry x="320" y="598.95" width="120" height="60" as="geometry" />
        </mxCell>
        <mxCell id="Z-240J1SGFox5FOLwqvj-98" style="edgeStyle=orthogonalEdgeStyle;curved=0;rounded=1;sketch=0;orthogonalLoop=1;jettySize=auto;html=1;exitX=0.5;exitY=1;exitDx=0;exitDy=0;entryX=0;entryY=0.5;entryDx=0;entryDy=0;labelBackgroundColor=none;fontColor=#E4FDE1;strokeColor=#028090;strokeWidth=3;fillColor=#F45B69;" edge="1" parent="Z-240J1SGFox5FOLwqvj-72" source="Z-240J1SGFox5FOLwqvj-79" target="Z-240J1SGFox5FOLwqvj-77">
          <mxGeometry relative="1" as="geometry" />
        </mxCell>
        <mxCell id="Z-240J1SGFox5FOLwqvj-79" value="Triggers Combo" style="swimlane;fontStyle=0;childLayout=stackLayout;horizontal=1;startSize=26;horizontalStack=0;resizeParent=1;resizeParentMax=0;resizeLast=0;collapsible=1;marginBottom=0;rounded=0;sketch=0;fontColor=#E4FDE1;strokeColor=#028090;strokeWidth=7;fillColor=#F45B69;" vertex="1" parent="Z-240J1SGFox5FOLwqvj-72">
          <mxGeometry x="15" y="378.95" width="230" height="52" as="geometry">
            <mxRectangle x="15" y="378.95" width="120" height="26" as="alternateBounds" />
          </mxGeometry>
        </mxCell>
        <mxCell id="Z-240J1SGFox5FOLwqvj-80" value="When you combo with this card" style="text;strokeColor=none;fillColor=none;align=left;verticalAlign=top;spacingLeft=4;spacingRight=4;overflow=hidden;rotatable=0;points=[[0,0.5],[1,0.5]];portConstraint=eastwest;fontColor=#E4FDE1;" vertex="1" parent="Z-240J1SGFox5FOLwqvj-79">
          <mxGeometry y="26" width="230" height="26" as="geometry" />
        </mxCell>
        <mxCell id="Z-240J1SGFox5FOLwqvj-87" value="Counter Timing&amp;nbsp;" style="whiteSpace=wrap;html=1;rounded=0;fontColor=#E4FDE1;strokeColor=#028090;strokeWidth=7;fillColor=#F45B69;sketch=0;" vertex="1" parent="Z-240J1SGFox5FOLwqvj-72">
          <mxGeometry x="320" y="229.95" width="120" height="60" as="geometry" />
        </mxCell>
        <mxCell id="Z-240J1SGFox5FOLwqvj-88" value="Activate: Battle" style="edgeStyle=orthogonalEdgeStyle;curved=0;rounded=1;sketch=0;orthogonalLoop=1;jettySize=auto;html=1;fontColor=#E4FDE1;strokeColor=#028090;strokeWidth=3;fillColor=#F45B69;labelBackgroundColor=none;" edge="1" parent="Z-240J1SGFox5FOLwqvj-72" target="Z-240J1SGFox5FOLwqvj-87">
          <mxGeometry relative="1" as="geometry">
            <mxPoint x="380" y="172.7" as="sourcePoint" />
          </mxGeometry>
        </mxCell>
        <mxCell id="Z-240J1SGFox5FOLwqvj-89" value="Resolve Skill" style="whiteSpace=wrap;html=1;rounded=0;fontColor=#E4FDE1;strokeColor=#028090;strokeWidth=7;fillColor=#F45B69;sketch=0;" vertex="1" parent="Z-240J1SGFox5FOLwqvj-72">
          <mxGeometry x="320" y="319.95" width="120" height="60" as="geometry" />
        </mxCell>
        <mxCell id="Z-240J1SGFox5FOLwqvj-90" value="" style="edgeStyle=orthogonalEdgeStyle;curved=0;rounded=1;sketch=0;orthogonalLoop=1;jettySize=auto;html=1;labelBackgroundColor=none;fontColor=#E4FDE1;strokeColor=#028090;strokeWidth=3;fillColor=#F45B69;" edge="1" parent="Z-240J1SGFox5FOLwqvj-72" source="Z-240J1SGFox5FOLwqvj-87" target="Z-240J1SGFox5FOLwqvj-89">
          <mxGeometry relative="1" as="geometry" />
        </mxCell>
        <mxCell id="Z-240J1SGFox5FOLwqvj-93" style="edgeStyle=orthogonalEdgeStyle;curved=0;rounded=1;sketch=0;orthogonalLoop=1;jettySize=auto;html=1;exitX=0.5;exitY=1;exitDx=0;exitDy=0;entryX=0.5;entryY=0;entryDx=0;entryDy=0;labelBackgroundColor=none;fontColor=#E4FDE1;strokeColor=#028090;strokeWidth=3;fillColor=#F45B69;" edge="1" parent="Z-240J1SGFox5FOLwqvj-72" source="Z-240J1SGFox5FOLwqvj-91">
          <mxGeometry relative="1" as="geometry">
            <mxPoint x="380" y="599.95" as="targetPoint" />
          </mxGeometry>
        </mxCell>
        <mxCell id="Z-240J1SGFox5FOLwqvj-91" value="Counter Timing" style="whiteSpace=wrap;html=1;rounded=0;fontColor=#E4FDE1;strokeColor=#028090;strokeWidth=7;fillColor=#F45B69;sketch=0;" vertex="1" parent="Z-240J1SGFox5FOLwqvj-72">
          <mxGeometry x="320" y="419.95" width="120" height="60" as="geometry" />
        </mxCell>
        <mxCell id="Z-240J1SGFox5FOLwqvj-92" value="" style="edgeStyle=orthogonalEdgeStyle;curved=0;rounded=1;sketch=0;orthogonalLoop=1;jettySize=auto;html=1;labelBackgroundColor=none;fontColor=#E4FDE1;strokeColor=#028090;strokeWidth=3;fillColor=#F45B69;" edge="1" parent="Z-240J1SGFox5FOLwqvj-72" source="Z-240J1SGFox5FOLwqvj-89" target="Z-240J1SGFox5FOLwqvj-91">
          <mxGeometry relative="1" as="geometry" />
        </mxCell>
        <mxCell id="Z-240J1SGFox5FOLwqvj-96" style="edgeStyle=orthogonalEdgeStyle;curved=0;rounded=1;sketch=0;orthogonalLoop=1;jettySize=auto;html=1;entryX=1;entryY=0.5;entryDx=0;entryDy=0;labelBackgroundColor=none;fontColor=#E4FDE1;strokeColor=#028090;strokeWidth=3;fillColor=#F45B69;" edge="1" parent="Z-240J1SGFox5FOLwqvj-72">
          <mxGeometry relative="1" as="geometry">
            <mxPoint x="620.0500000000002" y="289.95" as="sourcePoint" />
            <mxPoint x="440" y="629.95" as="targetPoint" />
            <Array as="points">
              <mxPoint x="620" y="629.95" />
            </Array>
          </mxGeometry>
        </mxCell>
        <mxCell id="Z-240J1SGFox5FOLwqvj-94" value="Activate and resolve Awaken or Wish Skills" style="whiteSpace=wrap;html=1;rounded=0;fontColor=#E4FDE1;strokeColor=#028090;strokeWidth=7;fillColor=#F45B69;sketch=0;" vertex="1" parent="Z-240J1SGFox5FOLwqvj-72">
          <mxGeometry x="560" y="228.95" width="120" height="60" as="geometry" />
        </mxCell>
        <mxCell id="Z-240J1SGFox5FOLwqvj-95" value="Awaken/Wish" style="edgeStyle=orthogonalEdgeStyle;curved=0;rounded=1;sketch=0;orthogonalLoop=1;jettySize=auto;html=1;labelBackgroundColor=none;fontColor=#E4FDE1;strokeColor=#028090;strokeWidth=3;fillColor=#F45B69;" edge="1" parent="Z-240J1SGFox5FOLwqvj-72">
          <mxGeometry relative="1" as="geometry">
            <mxPoint x="419.9499999999998" y="132.75000000000017" as="sourcePoint" />
            <mxPoint x="620.0500000000002" y="229.95" as="targetPoint" />
          </mxGeometry>
        </mxCell>
        <mxCell id="Z-240J1SGFox5FOLwqvj-102" value="" style="edgeStyle=orthogonalEdgeStyle;curved=0;rounded=1;sketch=0;orthogonalLoop=1;jettySize=auto;html=1;labelBackgroundColor=none;fontColor=#E4FDE1;strokeColor=#028090;strokeWidth=3;fillColor=#F45B69;entryX=0;entryY=0.5;entryDx=0;entryDy=0;" edge="1" parent="1" target="Z-240J1SGFox5FOLwqvj-152">
          <mxGeometry relative="1" as="geometry">
            <mxPoint x="430" y="2395" as="sourcePoint" />
            <mxPoint x="440" y="2395" as="targetPoint" />
            <Array as="points">
              <mxPoint x="420" y="2395" />
              <mxPoint x="420" y="3520" />
            </Array>
          </mxGeometry>
        </mxCell>
        <mxCell id="Z-240J1SGFox5FOLwqvj-104" value="No" style="edgeStyle=orthogonalEdgeStyle;curved=0;rounded=1;sketch=0;orthogonalLoop=1;jettySize=auto;html=1;labelBackgroundColor=none;fontColor=#E4FDE1;strokeColor=#028090;strokeWidth=3;fillColor=#F45B69;" edge="1" parent="1" source="Z-240J1SGFox5FOLwqvj-99" target="Z-240J1SGFox5FOLwqvj-103">
          <mxGeometry relative="1" as="geometry" />
        </mxCell>
        <mxCell id="Z-240J1SGFox5FOLwqvj-99" value="Is The Guard Card a Unison Card?" style="rhombus;whiteSpace=wrap;html=1;rounded=0;fontColor=#E4FDE1;fontStyle=1;strokeColor=#028090;strokeWidth=7;fillColor=#F45B69;startSize=23;sketch=0;" vertex="1" parent="1">
          <mxGeometry x="637.5" y="2320" width="150" height="150" as="geometry" />
        </mxCell>
        <mxCell id="Z-240J1SGFox5FOLwqvj-150" style="edgeStyle=orthogonalEdgeStyle;curved=0;rounded=1;sketch=0;orthogonalLoop=1;jettySize=auto;html=1;exitX=0.5;exitY=1;exitDx=0;exitDy=0;entryX=0.5;entryY=0;entryDx=0;entryDy=0;labelBackgroundColor=none;fontColor=#E4FDE1;strokeColor=#028090;strokeWidth=3;fillColor=#F45B69;" edge="1" parent="1" source="Z-240J1SGFox5FOLwqvj-103" target="Z-240J1SGFox5FOLwqvj-148">
          <mxGeometry relative="1" as="geometry" />
        </mxCell>
        <mxCell id="Z-240J1SGFox5FOLwqvj-103" value="Defense Step" style="whiteSpace=wrap;html=1;rounded=0;fontColor=#E4FDE1;fontStyle=1;strokeColor=#028090;strokeWidth=7;fillColor=#F45B69;startSize=23;sketch=0;" vertex="1" parent="1">
          <mxGeometry x="882.5" y="2365" width="120" height="60" as="geometry" />
        </mxCell>
        <mxCell id="Z-240J1SGFox5FOLwqvj-153" value="" style="edgeStyle=orthogonalEdgeStyle;curved=0;rounded=1;sketch=0;orthogonalLoop=1;jettySize=auto;html=1;labelBackgroundColor=none;fontColor=#E4FDE1;strokeColor=#028090;strokeWidth=3;fillColor=#F45B69;" edge="1" parent="1" source="Z-240J1SGFox5FOLwqvj-126" target="Z-240J1SGFox5FOLwqvj-152">
          <mxGeometry relative="1" as="geometry" />
        </mxCell>
        <mxCell id="Z-240J1SGFox5FOLwqvj-126" value="Non Player Free Timing" style="swimlane;rounded=0;sketch=0;fontColor=#E4FDE1;strokeColor=#028090;fillColor=#F45B69;strokeWidth=7;" vertex="1" parent="1">
          <mxGeometry x="546.25" y="2670" width="792.5" height="720" as="geometry" />
        </mxCell>
        <mxCell id="Z-240J1SGFox5FOLwqvj-127" value="Possible Actions" style="rhombus;whiteSpace=wrap;html=1;rounded=0;sketch=0;fontColor=#E4FDE1;strokeColor=#028090;strokeWidth=7;fillColor=#F45B69;" vertex="1" parent="Z-240J1SGFox5FOLwqvj-126">
          <mxGeometry x="340" y="90" width="80" height="80" as="geometry" />
        </mxCell>
        <mxCell id="Z-240J1SGFox5FOLwqvj-128" style="edgeStyle=orthogonalEdgeStyle;curved=0;rounded=1;sketch=0;orthogonalLoop=1;jettySize=auto;html=1;exitX=0.5;exitY=1;exitDx=0;exitDy=0;entryX=0.5;entryY=0;entryDx=0;entryDy=0;labelBackgroundColor=none;fontColor=#E4FDE1;strokeColor=#028090;strokeWidth=3;fillColor=#F45B69;" edge="1" parent="Z-240J1SGFox5FOLwqvj-126">
          <mxGeometry relative="1" as="geometry">
            <mxPoint x="130" y="289.95" as="sourcePoint" />
            <mxPoint x="130" y="379.95" as="targetPoint" />
          </mxGeometry>
        </mxCell>
        <mxCell id="Z-240J1SGFox5FOLwqvj-129" value="Place a card in the combo area paying all costs" style="whiteSpace=wrap;html=1;rounded=0;fontColor=#E4FDE1;strokeColor=#028090;strokeWidth=7;fillColor=#F45B69;sketch=0;" vertex="1" parent="Z-240J1SGFox5FOLwqvj-126">
          <mxGeometry x="60" y="228.95" width="140" height="60" as="geometry" />
        </mxCell>
        <mxCell id="Z-240J1SGFox5FOLwqvj-130" value="Combo" style="edgeStyle=orthogonalEdgeStyle;curved=0;rounded=1;sketch=0;orthogonalLoop=1;jettySize=auto;html=1;fontColor=#E4FDE1;strokeColor=#028090;strokeWidth=3;fillColor=#F45B69;labelBackgroundColor=none;" edge="1" parent="Z-240J1SGFox5FOLwqvj-126">
          <mxGeometry relative="1" as="geometry">
            <mxPoint x="340.0500000000002" y="132.75000000000017" as="sourcePoint" />
            <mxPoint x="130.05000000000018" y="229.95" as="targetPoint" />
          </mxGeometry>
        </mxCell>
        <mxCell id="Z-240J1SGFox5FOLwqvj-131" style="edgeStyle=orthogonalEdgeStyle;curved=0;rounded=1;sketch=0;orthogonalLoop=1;jettySize=auto;html=1;exitX=0.5;exitY=1;exitDx=0;exitDy=0;entryX=0.5;entryY=0;entryDx=0;entryDy=0;labelBackgroundColor=none;fontColor=#E4FDE1;strokeColor=#028090;strokeWidth=3;fillColor=#F45B69;" edge="1" parent="Z-240J1SGFox5FOLwqvj-126" source="Z-240J1SGFox5FOLwqvj-132" target="Z-240J1SGFox5FOLwqvj-127">
          <mxGeometry relative="1" as="geometry">
            <Array as="points">
              <mxPoint x="380" y="690" />
              <mxPoint x="720" y="690" />
              <mxPoint x="720" y="33" />
              <mxPoint x="380" y="33" />
            </Array>
          </mxGeometry>
        </mxCell>
        <mxCell id="Z-240J1SGFox5FOLwqvj-132" value="Checkpoint:&lt;br&gt;Resolve all pending Autos" style="whiteSpace=wrap;html=1;rounded=0;fontColor=#E4FDE1;strokeColor=#028090;strokeWidth=7;fillColor=#F45B69;sketch=0;" vertex="1" parent="Z-240J1SGFox5FOLwqvj-126">
          <mxGeometry x="320" y="598.95" width="120" height="60" as="geometry" />
        </mxCell>
        <mxCell id="Z-240J1SGFox5FOLwqvj-133" style="edgeStyle=orthogonalEdgeStyle;curved=0;rounded=1;sketch=0;orthogonalLoop=1;jettySize=auto;html=1;exitX=0.5;exitY=1;exitDx=0;exitDy=0;entryX=0;entryY=0.5;entryDx=0;entryDy=0;labelBackgroundColor=none;fontColor=#E4FDE1;strokeColor=#028090;strokeWidth=3;fillColor=#F45B69;" edge="1" parent="Z-240J1SGFox5FOLwqvj-126" source="Z-240J1SGFox5FOLwqvj-134" target="Z-240J1SGFox5FOLwqvj-132">
          <mxGeometry relative="1" as="geometry" />
        </mxCell>
        <mxCell id="Z-240J1SGFox5FOLwqvj-134" value="Triggers Combo" style="swimlane;fontStyle=0;childLayout=stackLayout;horizontal=1;startSize=26;horizontalStack=0;resizeParent=1;resizeParentMax=0;resizeLast=0;collapsible=1;marginBottom=0;rounded=0;sketch=0;fontColor=#E4FDE1;strokeColor=#028090;strokeWidth=7;fillColor=#F45B69;" vertex="1" parent="Z-240J1SGFox5FOLwqvj-126">
          <mxGeometry x="15" y="378.95" width="230" height="52" as="geometry" />
        </mxCell>
        <mxCell id="Z-240J1SGFox5FOLwqvj-135" value="When you combo with this card" style="text;strokeColor=none;fillColor=none;align=left;verticalAlign=top;spacingLeft=4;spacingRight=4;overflow=hidden;rotatable=0;points=[[0,0.5],[1,0.5]];portConstraint=eastwest;fontColor=#E4FDE1;" vertex="1" parent="Z-240J1SGFox5FOLwqvj-134">
          <mxGeometry y="26" width="230" height="26" as="geometry" />
        </mxCell>
        <mxCell id="Z-240J1SGFox5FOLwqvj-136" style="edgeStyle=orthogonalEdgeStyle;curved=0;rounded=1;sketch=0;orthogonalLoop=1;jettySize=auto;html=1;fontColor=#E4FDE1;strokeColor=#028090;fillColor=#F45B69;labelBackgroundColor=#114B5F;" edge="1" parent="Z-240J1SGFox5FOLwqvj-134" target="Z-240J1SGFox5FOLwqvj-135">
          <mxGeometry relative="1" as="geometry">
            <mxPoint y="65" as="sourcePoint" />
          </mxGeometry>
        </mxCell>
        <mxCell id="Z-240J1SGFox5FOLwqvj-137" value="Counter Timing&amp;nbsp;" style="whiteSpace=wrap;html=1;rounded=0;fontColor=#E4FDE1;strokeColor=#028090;strokeWidth=7;fillColor=#F45B69;sketch=0;" vertex="1" parent="Z-240J1SGFox5FOLwqvj-126">
          <mxGeometry x="320" y="229.95" width="120" height="60" as="geometry" />
        </mxCell>
        <mxCell id="Z-240J1SGFox5FOLwqvj-138" value="Activate: Battle" style="edgeStyle=orthogonalEdgeStyle;curved=0;rounded=1;sketch=0;orthogonalLoop=1;jettySize=auto;html=1;fontColor=#E4FDE1;strokeColor=#028090;strokeWidth=3;fillColor=#F45B69;labelBackgroundColor=none;" edge="1" parent="Z-240J1SGFox5FOLwqvj-126" target="Z-240J1SGFox5FOLwqvj-137">
          <mxGeometry relative="1" as="geometry">
            <mxPoint x="380" y="172.7" as="sourcePoint" />
          </mxGeometry>
        </mxCell>
        <mxCell id="Z-240J1SGFox5FOLwqvj-139" value="Resolve Skill" style="whiteSpace=wrap;html=1;rounded=0;fontColor=#E4FDE1;strokeColor=#028090;strokeWidth=7;fillColor=#F45B69;sketch=0;" vertex="1" parent="Z-240J1SGFox5FOLwqvj-126">
          <mxGeometry x="320" y="319.95" width="120" height="60" as="geometry" />
        </mxCell>
        <mxCell id="Z-240J1SGFox5FOLwqvj-140" value="" style="edgeStyle=orthogonalEdgeStyle;curved=0;rounded=1;sketch=0;orthogonalLoop=1;jettySize=auto;html=1;labelBackgroundColor=none;fontColor=#E4FDE1;strokeColor=#028090;strokeWidth=3;fillColor=#F45B69;" edge="1" parent="Z-240J1SGFox5FOLwqvj-126" source="Z-240J1SGFox5FOLwqvj-137" target="Z-240J1SGFox5FOLwqvj-139">
          <mxGeometry relative="1" as="geometry" />
        </mxCell>
        <mxCell id="Z-240J1SGFox5FOLwqvj-141" style="edgeStyle=orthogonalEdgeStyle;curved=0;rounded=1;sketch=0;orthogonalLoop=1;jettySize=auto;html=1;exitX=0.5;exitY=1;exitDx=0;exitDy=0;entryX=0.5;entryY=0;entryDx=0;entryDy=0;labelBackgroundColor=none;fontColor=#E4FDE1;strokeColor=#028090;strokeWidth=3;fillColor=#F45B69;" edge="1" parent="Z-240J1SGFox5FOLwqvj-126" source="Z-240J1SGFox5FOLwqvj-142">
          <mxGeometry relative="1" as="geometry">
            <mxPoint x="380" y="599.95" as="targetPoint" />
          </mxGeometry>
        </mxCell>
        <mxCell id="Z-240J1SGFox5FOLwqvj-142" value="Counter Timing" style="whiteSpace=wrap;html=1;rounded=0;fontColor=#E4FDE1;strokeColor=#028090;strokeWidth=7;fillColor=#F45B69;sketch=0;" vertex="1" parent="Z-240J1SGFox5FOLwqvj-126">
          <mxGeometry x="320" y="419.95" width="120" height="60" as="geometry" />
        </mxCell>
        <mxCell id="Z-240J1SGFox5FOLwqvj-143" value="" style="edgeStyle=orthogonalEdgeStyle;curved=0;rounded=1;sketch=0;orthogonalLoop=1;jettySize=auto;html=1;labelBackgroundColor=none;fontColor=#E4FDE1;strokeColor=#028090;strokeWidth=3;fillColor=#F45B69;" edge="1" parent="Z-240J1SGFox5FOLwqvj-126" source="Z-240J1SGFox5FOLwqvj-139" target="Z-240J1SGFox5FOLwqvj-142">
          <mxGeometry relative="1" as="geometry" />
        </mxCell>
        <mxCell id="Z-240J1SGFox5FOLwqvj-144" style="edgeStyle=orthogonalEdgeStyle;curved=0;rounded=1;sketch=0;orthogonalLoop=1;jettySize=auto;html=1;entryX=1;entryY=0.5;entryDx=0;entryDy=0;labelBackgroundColor=none;fontColor=#E4FDE1;strokeColor=#028090;strokeWidth=3;fillColor=#F45B69;" edge="1" parent="Z-240J1SGFox5FOLwqvj-126">
          <mxGeometry relative="1" as="geometry">
            <mxPoint x="620.0500000000002" y="289.95" as="sourcePoint" />
            <mxPoint x="440" y="629.95" as="targetPoint" />
            <Array as="points">
              <mxPoint x="620" y="629.95" />
            </Array>
          </mxGeometry>
        </mxCell>
        <mxCell id="Z-240J1SGFox5FOLwqvj-145" value="Activate and resolve Awaken or Wish Skills" style="whiteSpace=wrap;html=1;rounded=0;fontColor=#E4FDE1;strokeColor=#028090;strokeWidth=7;fillColor=#F45B69;sketch=0;" vertex="1" parent="Z-240J1SGFox5FOLwqvj-126">
          <mxGeometry x="560" y="228.95" width="120" height="60" as="geometry" />
        </mxCell>
        <mxCell id="Z-240J1SGFox5FOLwqvj-146" value="Awaken/Wish" style="edgeStyle=orthogonalEdgeStyle;curved=0;rounded=1;sketch=0;orthogonalLoop=1;jettySize=auto;html=1;labelBackgroundColor=none;fontColor=#E4FDE1;strokeColor=#028090;strokeWidth=3;fillColor=#F45B69;" edge="1" parent="Z-240J1SGFox5FOLwqvj-126">
          <mxGeometry relative="1" as="geometry">
            <mxPoint x="419.9499999999998" y="132.75000000000017" as="sourcePoint" />
            <mxPoint x="620.0500000000002" y="229.95" as="targetPoint" />
          </mxGeometry>
        </mxCell>
        <mxCell id="Z-240J1SGFox5FOLwqvj-151" style="edgeStyle=orthogonalEdgeStyle;curved=0;rounded=1;sketch=0;orthogonalLoop=1;jettySize=auto;html=1;exitX=0.5;exitY=1;exitDx=0;exitDy=0;labelBackgroundColor=none;fontColor=#E4FDE1;strokeColor=#028090;strokeWidth=3;fillColor=#F45B69;" edge="1" parent="1" source="Z-240J1SGFox5FOLwqvj-148" target="Z-240J1SGFox5FOLwqvj-126">
          <mxGeometry relative="1" as="geometry" />
        </mxCell>
        <mxCell id="Z-240J1SGFox5FOLwqvj-148" value="Triggers Defense Step" style="swimlane;fontStyle=0;childLayout=stackLayout;horizontal=1;startSize=26;horizontalStack=0;resizeParent=1;resizeParentMax=0;resizeLast=0;collapsible=1;marginBottom=0;rounded=0;sketch=0;fontColor=#E4FDE1;strokeColor=#028090;strokeWidth=4;labelBackgroundColor=none;fillColor=#F45B69;" vertex="1" parent="1">
          <mxGeometry x="833.75" y="2500" width="217.5" height="52" as="geometry" />
        </mxCell>
        <mxCell id="Z-240J1SGFox5FOLwqvj-149" value="At the beginning of the Defense Step" style="text;strokeColor=none;fillColor=none;align=left;verticalAlign=top;spacingLeft=4;spacingRight=4;overflow=hidden;rotatable=0;points=[[0,0.5],[1,0.5]];portConstraint=eastwest;fontColor=#E4FDE1;" vertex="1" parent="Z-240J1SGFox5FOLwqvj-148">
          <mxGeometry y="26" width="217.5" height="26" as="geometry" />
        </mxCell>
        <mxCell id="Z-240J1SGFox5FOLwqvj-155" value="" style="edgeStyle=orthogonalEdgeStyle;curved=0;rounded=1;sketch=0;orthogonalLoop=1;jettySize=auto;html=1;labelBackgroundColor=none;fontColor=#E4FDE1;strokeColor=#028090;strokeWidth=3;fillColor=#F45B69;entryX=0.5;entryY=0;entryDx=0;entryDy=0;" edge="1" parent="1" source="Z-240J1SGFox5FOLwqvj-152" target="Z-240J1SGFox5FOLwqvj-156">
          <mxGeometry relative="1" as="geometry">
            <mxPoint x="943" y="3640" as="targetPoint" />
          </mxGeometry>
        </mxCell>
        <mxCell id="Z-240J1SGFox5FOLwqvj-152" value="Damage Step" style="whiteSpace=wrap;html=1;rounded=0;fontColor=#E4FDE1;fontStyle=1;strokeColor=#028090;strokeWidth=7;fillColor=#F45B69;startSize=23;sketch=0;" vertex="1" parent="1">
          <mxGeometry x="882.5" y="3490" width="120" height="60" as="geometry" />
        </mxCell>
        <mxCell id="Z-240J1SGFox5FOLwqvj-159" value="" style="edgeStyle=orthogonalEdgeStyle;curved=0;rounded=1;sketch=0;orthogonalLoop=1;jettySize=auto;html=1;labelBackgroundColor=none;fontColor=#E4FDE1;strokeColor=#028090;strokeWidth=3;fillColor=#F45B69;" edge="1" parent="1" source="Z-240J1SGFox5FOLwqvj-156" target="Z-240J1SGFox5FOLwqvj-158">
          <mxGeometry relative="1" as="geometry" />
        </mxCell>
        <mxCell id="Z-240J1SGFox5FOLwqvj-156" value="Triggers Damage Step" style="swimlane;fontStyle=0;childLayout=stackLayout;horizontal=1;startSize=26;horizontalStack=0;resizeParent=1;resizeParentMax=0;resizeLast=0;collapsible=1;marginBottom=0;rounded=0;sketch=0;fontColor=#E4FDE1;strokeColor=#028090;strokeWidth=4;labelBackgroundColor=none;fillColor=#F45B69;" vertex="1" parent="1">
          <mxGeometry x="833.75" y="3610" width="217.5" height="52" as="geometry" />
        </mxCell>
        <mxCell id="Z-240J1SGFox5FOLwqvj-157" value="At the beginning of the Defense Step" style="text;strokeColor=none;fillColor=none;align=left;verticalAlign=top;spacingLeft=4;spacingRight=4;overflow=hidden;rotatable=0;points=[[0,0.5],[1,0.5]];portConstraint=eastwest;fontColor=#E4FDE1;" vertex="1" parent="Z-240J1SGFox5FOLwqvj-156">
          <mxGeometry y="26" width="217.5" height="26" as="geometry" />
        </mxCell>
        <mxCell id="Z-240J1SGFox5FOLwqvj-161" value="" style="edgeStyle=orthogonalEdgeStyle;curved=0;rounded=1;sketch=0;orthogonalLoop=1;jettySize=auto;html=1;labelBackgroundColor=none;fontColor=#E4FDE1;strokeColor=#028090;strokeWidth=3;fillColor=#F45B69;" edge="1" parent="1" source="Z-240J1SGFox5FOLwqvj-158" target="Z-240J1SGFox5FOLwqvj-160">
          <mxGeometry relative="1" as="geometry" />
        </mxCell>
        <mxCell id="Z-240J1SGFox5FOLwqvj-158" value="Checkpoint:&amp;nbsp;&lt;br&gt;Resolve all pending Triggers Damage Step Auto&#39;s" style="whiteSpace=wrap;html=1;rounded=0;fontColor=#E4FDE1;fontStyle=0;strokeColor=#028090;strokeWidth=4;fillColor=#F45B69;startSize=26;sketch=0;" vertex="1" parent="1">
          <mxGeometry x="882.5" y="3738" width="120" height="60" as="geometry" />
        </mxCell>
        <mxCell id="Z-240J1SGFox5FOLwqvj-163" value="" style="edgeStyle=orthogonalEdgeStyle;curved=0;rounded=1;sketch=0;orthogonalLoop=1;jettySize=auto;html=1;labelBackgroundColor=none;fontColor=#E4FDE1;strokeColor=#028090;strokeWidth=3;fillColor=#F45B69;" edge="1" parent="1" source="Z-240J1SGFox5FOLwqvj-160" target="Z-240J1SGFox5FOLwqvj-162">
          <mxGeometry relative="1" as="geometry" />
        </mxCell>
        <mxCell id="Z-240J1SGFox5FOLwqvj-160" value="Add all combo power of the turn player&#39;s cards in the combo area to the power of the attack card" style="whiteSpace=wrap;html=1;rounded=0;fontColor=#E4FDE1;fontStyle=0;strokeColor=#028090;strokeWidth=4;fillColor=#F45B69;startSize=26;sketch=0;" vertex="1" parent="1">
          <mxGeometry x="840.5" y="3878" width="204" height="102" as="geometry" />
        </mxCell>
        <mxCell id="Z-240J1SGFox5FOLwqvj-165" value="" style="edgeStyle=orthogonalEdgeStyle;curved=0;rounded=1;sketch=0;orthogonalLoop=1;jettySize=auto;html=1;labelBackgroundColor=none;fontColor=#E4FDE1;strokeColor=#028090;strokeWidth=3;fillColor=#F45B69;" edge="1" parent="1" source="Z-240J1SGFox5FOLwqvj-162" target="Z-240J1SGFox5FOLwqvj-164">
          <mxGeometry relative="1" as="geometry" />
        </mxCell>
        <mxCell id="Z-240J1SGFox5FOLwqvj-162" value="Add all combo power of the non-turn player&#39;s cards in the combo area to the power of the Guard card" style="whiteSpace=wrap;html=1;rounded=0;fontColor=#E4FDE1;fontStyle=0;strokeColor=#028090;strokeWidth=4;fillColor=#F45B69;startSize=26;sketch=0;" vertex="1" parent="1">
          <mxGeometry x="840.5" y="4060" width="204" height="102" as="geometry" />
        </mxCell>
        <mxCell id="Z-240J1SGFox5FOLwqvj-173" value="Yes" style="edgeStyle=orthogonalEdgeStyle;curved=0;rounded=1;sketch=0;orthogonalLoop=1;jettySize=auto;html=1;labelBackgroundColor=none;fontColor=#E4FDE1;strokeColor=#028090;strokeWidth=3;fillColor=#F45B69;" edge="1" parent="1" source="Z-240J1SGFox5FOLwqvj-164" target="Z-240J1SGFox5FOLwqvj-172">
          <mxGeometry relative="1" as="geometry" />
        </mxCell>
        <mxCell id="Z-240J1SGFox5FOLwqvj-232" value="No" style="edgeStyle=orthogonalEdgeStyle;curved=0;rounded=1;sketch=0;orthogonalLoop=1;jettySize=auto;html=1;labelBackgroundColor=none;fontColor=#FFFFFF;startArrow=none;startFill=0;endArrow=none;endFill=0;strokeColor=#028090;strokeWidth=3;fillColor=#F45B69;" edge="1" parent="1" source="Z-240J1SGFox5FOLwqvj-164">
          <mxGeometry relative="1" as="geometry">
            <mxPoint x="1190" y="4530" as="targetPoint" />
            <Array as="points">
              <mxPoint x="1190" y="4379" />
              <mxPoint x="1190" y="4490" />
            </Array>
          </mxGeometry>
        </mxCell>
        <mxCell id="Z-240J1SGFox5FOLwqvj-164" value="Is the Attacking cards power Greater than or Equal to the Guard card&#39;s power?" style="rhombus;whiteSpace=wrap;html=1;rounded=0;fontColor=#E4FDE1;fontStyle=0;strokeColor=#028090;strokeWidth=4;fillColor=#F45B69;startSize=26;sketch=0;" vertex="1" parent="1">
          <mxGeometry x="814" y="4250" width="257" height="257" as="geometry" />
        </mxCell>
        <mxCell id="Z-240J1SGFox5FOLwqvj-175" value="Yes" style="edgeStyle=orthogonalEdgeStyle;curved=0;rounded=1;sketch=0;orthogonalLoop=1;jettySize=auto;html=1;labelBackgroundColor=none;fontColor=#E4FDE1;strokeColor=#028090;strokeWidth=3;fillColor=#F45B69;entryX=1;entryY=0.5;entryDx=0;entryDy=0;" edge="1" parent="1" source="Z-240J1SGFox5FOLwqvj-172" target="Z-240J1SGFox5FOLwqvj-177">
          <mxGeometry relative="1" as="geometry">
            <mxPoint x="414.25" y="4378.5" as="targetPoint" />
          </mxGeometry>
        </mxCell>
        <mxCell id="Z-240J1SGFox5FOLwqvj-192" value="" style="edgeStyle=orthogonalEdgeStyle;curved=0;rounded=1;sketch=0;orthogonalLoop=1;jettySize=auto;html=1;fontColor=none;strokeColor=#028090;strokeWidth=3;fillColor=#F45B69;entryX=0.5;entryY=0;entryDx=0;entryDy=0;" edge="1" parent="1" source="Z-240J1SGFox5FOLwqvj-172" target="Z-240J1SGFox5FOLwqvj-194">
          <mxGeometry relative="1" as="geometry">
            <mxPoint x="580" y="4510" as="targetPoint" />
          </mxGeometry>
        </mxCell>
        <mxCell id="Z-240J1SGFox5FOLwqvj-193" value="No" style="edgeLabel;html=1;align=center;verticalAlign=middle;resizable=0;points=[];labelBackgroundColor=none;fontColor=#FFFFFF;" vertex="1" connectable="0" parent="Z-240J1SGFox5FOLwqvj-192">
          <mxGeometry x="-0.2866" relative="1" as="geometry">
            <mxPoint as="offset" />
          </mxGeometry>
        </mxCell>
        <mxCell id="Z-240J1SGFox5FOLwqvj-172" value="Is the Guard Card A Leader Card?" style="rhombus;whiteSpace=wrap;html=1;rounded=0;fontColor=#E4FDE1;fontStyle=0;strokeColor=#028090;strokeWidth=4;fillColor=#F45B69;startSize=26;sketch=0;" vertex="1" parent="1">
          <mxGeometry x="507" y="4305.75" width="145.5" height="145.5" as="geometry" />
        </mxCell>
        <mxCell id="Z-240J1SGFox5FOLwqvj-183" value="" style="edgeStyle=orthogonalEdgeStyle;curved=0;rounded=1;sketch=0;orthogonalLoop=1;jettySize=auto;html=1;fontColor=none;strokeColor=#028090;fillColor=#F45B69;strokeWidth=3;" edge="1" parent="1" source="Z-240J1SGFox5FOLwqvj-177" target="Z-240J1SGFox5FOLwqvj-182">
          <mxGeometry relative="1" as="geometry" />
        </mxCell>
        <mxCell id="Z-240J1SGFox5FOLwqvj-177" value="Triggers Damage" style="swimlane;fontStyle=0;childLayout=stackLayout;horizontal=1;startSize=26;horizontalStack=0;resizeParent=1;resizeParentMax=0;resizeLast=0;collapsible=1;marginBottom=0;rounded=0;sketch=0;fontColor=#E4FDE1;strokeColor=#028090;fillColor=#F45B69;strokeWidth=4;" vertex="1" parent="1">
          <mxGeometry y="4352.5" width="140" height="52" as="geometry" />
        </mxCell>
        <mxCell id="Z-240J1SGFox5FOLwqvj-178" value="When you deal Damage" style="text;strokeColor=none;fillColor=none;align=left;verticalAlign=top;spacingLeft=4;spacingRight=4;overflow=hidden;rotatable=0;points=[[0,0.5],[1,0.5]];portConstraint=eastwest;fontColor=#E4FDE1;strokeWidth=4;" vertex="1" parent="Z-240J1SGFox5FOLwqvj-177">
          <mxGeometry y="26" width="140" height="26" as="geometry" />
        </mxCell>
        <mxCell id="Z-240J1SGFox5FOLwqvj-187" value="" style="edgeStyle=orthogonalEdgeStyle;curved=0;rounded=1;sketch=0;orthogonalLoop=1;jettySize=auto;html=1;fontColor=none;strokeColor=#028090;strokeWidth=3;fillColor=#F45B69;" edge="1" parent="1" source="Z-240J1SGFox5FOLwqvj-182" target="Z-240J1SGFox5FOLwqvj-186">
          <mxGeometry relative="1" as="geometry" />
        </mxCell>
        <mxCell id="Z-240J1SGFox5FOLwqvj-182" value="Checkpoint:&lt;br&gt;Resolve Trigger Damage Auto&#39;s" style="whiteSpace=wrap;html=1;rounded=0;fontColor=#E4FDE1;fontStyle=0;strokeColor=#028090;fillColor=#F45B69;startSize=26;sketch=0;strokeWidth=4;" vertex="1" parent="1">
          <mxGeometry x="10" y="4440" width="120" height="60" as="geometry" />
        </mxCell>
        <mxCell id="Z-240J1SGFox5FOLwqvj-190" style="edgeStyle=orthogonalEdgeStyle;curved=0;rounded=1;sketch=0;orthogonalLoop=1;jettySize=auto;html=1;exitX=0.5;exitY=1;exitDx=0;exitDy=0;entryX=0.5;entryY=0;entryDx=0;entryDy=0;fontColor=none;strokeColor=#028090;strokeWidth=3;fillColor=#F45B69;" edge="1" parent="1" source="Z-240J1SGFox5FOLwqvj-184" target="Z-240J1SGFox5FOLwqvj-189">
          <mxGeometry relative="1" as="geometry" />
        </mxCell>
        <mxCell id="Z-240J1SGFox5FOLwqvj-184" value="Triggers Take Damage" style="swimlane;fontStyle=0;childLayout=stackLayout;horizontal=1;startSize=26;horizontalStack=0;resizeParent=1;resizeParentMax=0;resizeLast=0;collapsible=1;marginBottom=0;rounded=0;sketch=0;fontColor=#E4FDE1;strokeColor=#028090;fillColor=#F45B69;strokeWidth=4;" vertex="1" parent="1">
          <mxGeometry y="4682.75" width="140" height="52" as="geometry" />
        </mxCell>
        <mxCell id="Z-240J1SGFox5FOLwqvj-188" style="edgeStyle=orthogonalEdgeStyle;curved=0;rounded=1;sketch=0;orthogonalLoop=1;jettySize=auto;html=1;exitX=0.5;exitY=1;exitDx=0;exitDy=0;entryX=0.5;entryY=0;entryDx=0;entryDy=0;fontColor=none;strokeColor=#028090;strokeWidth=3;fillColor=#F45B69;" edge="1" parent="1" source="Z-240J1SGFox5FOLwqvj-186" target="Z-240J1SGFox5FOLwqvj-184">
          <mxGeometry relative="1" as="geometry" />
        </mxCell>
        <mxCell id="Z-240J1SGFox5FOLwqvj-186" value="Deal Damage&lt;br&gt;If the attack card has a [Strike]-type skill (double strike, triple strike), take t that much damage.&lt;br&gt;Otherwise Take 1 Damage" style="whiteSpace=wrap;html=1;rounded=0;fontColor=#E4FDE1;fontStyle=0;strokeColor=#028090;strokeWidth=4;fillColor=#F45B69;startSize=26;sketch=0;" vertex="1" parent="1">
          <mxGeometry y="4530" width="140" height="110" as="geometry" />
        </mxCell>
        <mxCell id="Z-240J1SGFox5FOLwqvj-229" style="edgeStyle=orthogonalEdgeStyle;curved=0;rounded=1;sketch=0;orthogonalLoop=1;jettySize=auto;html=1;exitX=0.5;exitY=1;exitDx=0;exitDy=0;labelBackgroundColor=none;fontColor=#FFFFFF;startArrow=none;startFill=0;endArrow=none;endFill=0;strokeColor=#028090;strokeWidth=3;fillColor=#F45B69;" edge="1" parent="1" source="Z-240J1SGFox5FOLwqvj-189">
          <mxGeometry relative="1" as="geometry">
            <mxPoint x="300" y="5180" as="targetPoint" />
            <Array as="points">
              <mxPoint x="70" y="5180" />
            </Array>
          </mxGeometry>
        </mxCell>
        <mxCell id="Z-240J1SGFox5FOLwqvj-189" value="Checkpoint:&lt;br&gt;Resolve Trigger Take Damage Auto&#39;s" style="whiteSpace=wrap;html=1;rounded=0;fontColor=#E4FDE1;fontStyle=0;strokeColor=#028090;fillColor=#F45B69;startSize=26;sketch=0;strokeWidth=4;" vertex="1" parent="1">
          <mxGeometry x="10" y="4760" width="120" height="60" as="geometry" />
        </mxCell>
        <mxCell id="Z-240J1SGFox5FOLwqvj-206" value="Yes" style="edgeStyle=orthogonalEdgeStyle;curved=0;rounded=1;sketch=0;orthogonalLoop=1;jettySize=auto;html=1;entryX=1;entryY=0.5;entryDx=0;entryDy=0;fontColor=#FFFFFF;strokeColor=#028090;strokeWidth=3;fillColor=#F45B69;labelBackgroundColor=none;" edge="1" parent="1" source="Z-240J1SGFox5FOLwqvj-194" target="Z-240J1SGFox5FOLwqvj-196">
          <mxGeometry relative="1" as="geometry" />
        </mxCell>
        <mxCell id="Z-240J1SGFox5FOLwqvj-208" value="No" style="edgeStyle=orthogonalEdgeStyle;curved=0;rounded=1;sketch=0;orthogonalLoop=1;jettySize=auto;html=1;labelBackgroundColor=none;fontColor=#FFFFFF;strokeColor=#028090;strokeWidth=3;fillColor=#F45B69;" edge="1" parent="1" source="Z-240J1SGFox5FOLwqvj-194" target="Z-240J1SGFox5FOLwqvj-207">
          <mxGeometry relative="1" as="geometry" />
        </mxCell>
        <mxCell id="Z-240J1SGFox5FOLwqvj-194" value="Is the Guard Card A Unison Card?" style="rhombus;whiteSpace=wrap;html=1;rounded=0;fontColor=#E4FDE1;fontStyle=0;strokeColor=#028090;strokeWidth=4;fillColor=#F45B69;startSize=26;sketch=0;" vertex="1" parent="1">
          <mxGeometry x="507" y="4563.25" width="145.5" height="145.5" as="geometry" />
        </mxCell>
        <mxCell id="Z-240J1SGFox5FOLwqvj-195" value="" style="edgeStyle=orthogonalEdgeStyle;curved=0;rounded=1;sketch=0;orthogonalLoop=1;jettySize=auto;html=1;fontColor=none;strokeColor=#028090;fillColor=#F45B69;strokeWidth=3;" edge="1" parent="1" source="Z-240J1SGFox5FOLwqvj-196" target="Z-240J1SGFox5FOLwqvj-199">
          <mxGeometry relative="1" as="geometry" />
        </mxCell>
        <mxCell id="Z-240J1SGFox5FOLwqvj-196" value="Triggers Marker" style="swimlane;fontStyle=0;childLayout=stackLayout;horizontal=1;startSize=26;horizontalStack=0;resizeParent=1;resizeParentMax=0;resizeLast=0;collapsible=1;marginBottom=0;rounded=0;sketch=0;fontColor=#E4FDE1;strokeColor=#028090;fillColor=#F45B69;strokeWidth=4;" vertex="1" parent="1">
          <mxGeometry x="190" y="4610" width="230" height="52" as="geometry" />
        </mxCell>
        <mxCell id="Z-240J1SGFox5FOLwqvj-197" value="When a marker would be removed" style="text;strokeColor=none;fillColor=none;align=left;verticalAlign=top;spacingLeft=4;spacingRight=4;overflow=hidden;rotatable=0;points=[[0,0.5],[1,0.5]];portConstraint=eastwest;fontColor=#E4FDE1;strokeWidth=4;" vertex="1" parent="Z-240J1SGFox5FOLwqvj-196">
          <mxGeometry y="26" width="230" height="26" as="geometry" />
        </mxCell>
        <mxCell id="Z-240J1SGFox5FOLwqvj-198" value="" style="edgeStyle=orthogonalEdgeStyle;curved=0;rounded=1;sketch=0;orthogonalLoop=1;jettySize=auto;html=1;fontColor=none;strokeColor=#028090;strokeWidth=3;fillColor=#F45B69;" edge="1" parent="1" source="Z-240J1SGFox5FOLwqvj-199" target="Z-240J1SGFox5FOLwqvj-204">
          <mxGeometry relative="1" as="geometry" />
        </mxCell>
        <mxCell id="Z-240J1SGFox5FOLwqvj-199" value="Checkpoint:&lt;br&gt;Resolve Trigger Marker Auto&#39;s" style="whiteSpace=wrap;html=1;rounded=0;fontColor=#E4FDE1;fontStyle=0;strokeColor=#028090;fillColor=#F45B69;startSize=26;sketch=0;strokeWidth=4;" vertex="1" parent="1">
          <mxGeometry x="245" y="4700" width="120" height="60" as="geometry" />
        </mxCell>
        <mxCell id="Z-240J1SGFox5FOLwqvj-212" style="edgeStyle=orthogonalEdgeStyle;curved=0;rounded=1;sketch=0;orthogonalLoop=1;jettySize=auto;html=1;exitX=0.5;exitY=1;exitDx=0;exitDy=0;entryX=0.5;entryY=0;entryDx=0;entryDy=0;labelBackgroundColor=none;fontColor=#FFFFFF;strokeColor=#028090;strokeWidth=3;fillColor=#F45B69;" edge="1" parent="1" source="Z-240J1SGFox5FOLwqvj-204" target="Z-240J1SGFox5FOLwqvj-210">
          <mxGeometry relative="1" as="geometry" />
        </mxCell>
        <mxCell id="Z-240J1SGFox5FOLwqvj-204" value="Remove Markers&lt;br&gt;If the attack card has a [Strike]-type keyword skill&lt;br&gt;(Double Strike, Triple Strike), remove markers from the&lt;br&gt;Unison Card equal to the amount of life damage the&lt;br&gt;card would deal when attacking a Leader Card&lt;br&gt;&lt;br&gt;If the attack card has [Victory Strike], remove all markers from the guard card" style="whiteSpace=wrap;html=1;rounded=0;fontColor=#E4FDE1;fontStyle=0;strokeColor=#028090;strokeWidth=4;fillColor=#F45B69;startSize=26;sketch=0;" vertex="1" parent="1">
          <mxGeometry x="150.40999999999997" y="4800" width="309.17" height="130" as="geometry" />
        </mxCell>
        <mxCell id="Z-240J1SGFox5FOLwqvj-220" style="edgeStyle=orthogonalEdgeStyle;curved=0;rounded=1;sketch=0;orthogonalLoop=1;jettySize=auto;html=1;exitX=0.5;exitY=1;exitDx=0;exitDy=0;labelBackgroundColor=none;fontColor=#FFFFFF;strokeColor=#028090;strokeWidth=3;fillColor=#F45B69;" edge="1" parent="1" source="Z-240J1SGFox5FOLwqvj-207" target="Z-240J1SGFox5FOLwqvj-217">
          <mxGeometry relative="1" as="geometry" />
        </mxCell>
        <mxCell id="Z-240J1SGFox5FOLwqvj-207" value="KO the guard card" style="whiteSpace=wrap;html=1;rounded=0;fontColor=#E4FDE1;fontStyle=0;strokeColor=#028090;strokeWidth=4;fillColor=#F45B69;startSize=26;sketch=0;" vertex="1" parent="1">
          <mxGeometry x="882.5" y="4606" width="120" height="60" as="geometry" />
        </mxCell>
        <mxCell id="Z-240J1SGFox5FOLwqvj-185" value="When you deal Damage" style="text;strokeColor=none;fillColor=none;align=left;verticalAlign=top;spacingLeft=4;spacingRight=4;overflow=hidden;rotatable=0;points=[[0,0.5],[1,0.5]];portConstraint=eastwest;fontColor=#E4FDE1;" vertex="1" parent="1">
          <mxGeometry y="4708.75" width="140" height="26" as="geometry" />
        </mxCell>
        <mxCell id="Z-240J1SGFox5FOLwqvj-216" style="edgeStyle=orthogonalEdgeStyle;curved=0;rounded=1;sketch=0;orthogonalLoop=1;jettySize=auto;html=1;exitX=0.5;exitY=1;exitDx=0;exitDy=0;labelBackgroundColor=none;fontColor=#FFFFFF;strokeColor=#028090;strokeWidth=3;fillColor=#F45B69;" edge="1" parent="1" source="Z-240J1SGFox5FOLwqvj-210" target="Z-240J1SGFox5FOLwqvj-215">
          <mxGeometry relative="1" as="geometry" />
        </mxCell>
        <mxCell id="Z-240J1SGFox5FOLwqvj-210" value="Triggers Marker" style="swimlane;fontStyle=0;childLayout=stackLayout;horizontal=1;startSize=26;horizontalStack=0;resizeParent=1;resizeParentMax=0;resizeLast=0;collapsible=1;marginBottom=0;rounded=0;sketch=0;fontColor=#E4FDE1;strokeColor=#028090;fillColor=#F45B69;strokeWidth=4;" vertex="1" parent="1">
          <mxGeometry x="190" y="4970" width="230" height="52" as="geometry" />
        </mxCell>
        <mxCell id="Z-240J1SGFox5FOLwqvj-211" value="When a marker would be removed" style="text;strokeColor=none;fillColor=none;align=left;verticalAlign=top;spacingLeft=4;spacingRight=4;overflow=hidden;rotatable=0;points=[[0,0.5],[1,0.5]];portConstraint=eastwest;fontColor=#E4FDE1;strokeWidth=4;" vertex="1" parent="Z-240J1SGFox5FOLwqvj-210">
          <mxGeometry y="26" width="230" height="26" as="geometry" />
        </mxCell>
        <mxCell id="Z-240J1SGFox5FOLwqvj-227" style="edgeStyle=orthogonalEdgeStyle;curved=0;rounded=1;sketch=0;orthogonalLoop=1;jettySize=auto;html=1;exitX=0.5;exitY=1;exitDx=0;exitDy=0;labelBackgroundColor=none;fontColor=#FFFFFF;startArrow=none;startFill=0;endArrow=none;endFill=0;strokeColor=#028090;strokeWidth=3;fillColor=#F45B69;" edge="1" parent="1" source="Z-240J1SGFox5FOLwqvj-215">
          <mxGeometry relative="1" as="geometry">
            <mxPoint x="305" y="5180" as="targetPoint" />
          </mxGeometry>
        </mxCell>
        <mxCell id="Z-240J1SGFox5FOLwqvj-215" value="Checkpoint:&lt;br&gt;Resolve Trigger Marker Auto&#39;s" style="whiteSpace=wrap;html=1;rounded=0;fontColor=#E4FDE1;fontStyle=0;strokeColor=#028090;fillColor=#F45B69;startSize=26;sketch=0;strokeWidth=4;" vertex="1" parent="1">
          <mxGeometry x="244.99" y="5060" width="120" height="60" as="geometry" />
        </mxCell>
        <mxCell id="Z-240J1SGFox5FOLwqvj-222" value="" style="edgeStyle=orthogonalEdgeStyle;curved=0;rounded=1;sketch=0;orthogonalLoop=1;jettySize=auto;html=1;labelBackgroundColor=none;fontColor=#FFFFFF;strokeColor=#028090;strokeWidth=3;fillColor=#F45B69;" edge="1" parent="1" source="Z-240J1SGFox5FOLwqvj-217" target="Z-240J1SGFox5FOLwqvj-221">
          <mxGeometry relative="1" as="geometry" />
        </mxCell>
        <mxCell id="Z-240J1SGFox5FOLwqvj-217" value="Triggers KO" style="swimlane;fontStyle=0;childLayout=stackLayout;horizontal=1;startSize=26;horizontalStack=0;resizeParent=1;resizeParentMax=0;resizeLast=0;collapsible=1;marginBottom=0;rounded=0;sketch=0;fontColor=#E4FDE1;strokeColor=#028090;fillColor=#F45B69;strokeWidth=4;" vertex="1" parent="1">
          <mxGeometry x="827.5" y="4734.75" width="230" height="78" as="geometry" />
        </mxCell>
        <mxCell id="Z-240J1SGFox5FOLwqvj-218" value="When this card is KO&#39;d" style="text;strokeColor=none;fillColor=none;align=left;verticalAlign=top;spacingLeft=4;spacingRight=4;overflow=hidden;rotatable=0;points=[[0,0.5],[1,0.5]];portConstraint=eastwest;fontColor=#E4FDE1;strokeWidth=4;" vertex="1" parent="Z-240J1SGFox5FOLwqvj-217">
          <mxGeometry y="26" width="230" height="26" as="geometry" />
        </mxCell>
        <mxCell id="Z-240J1SGFox5FOLwqvj-219" value="When this card KO&#39;s a card" style="text;strokeColor=none;fillColor=none;align=left;verticalAlign=top;spacingLeft=4;spacingRight=4;overflow=hidden;rotatable=0;points=[[0,0.5],[1,0.5]];portConstraint=eastwest;fontColor=#E4FDE1;strokeWidth=4;" vertex="1" parent="Z-240J1SGFox5FOLwqvj-217">
          <mxGeometry y="52" width="230" height="26" as="geometry" />
        </mxCell>
        <mxCell id="Z-240J1SGFox5FOLwqvj-228" style="edgeStyle=orthogonalEdgeStyle;curved=0;rounded=1;sketch=0;orthogonalLoop=1;jettySize=auto;html=1;exitX=0.5;exitY=1;exitDx=0;exitDy=0;labelBackgroundColor=none;fontColor=#FFFFFF;startArrow=none;startFill=0;endArrow=none;endFill=0;strokeColor=#028090;strokeWidth=3;fillColor=#F45B69;" edge="1" parent="1" source="Z-240J1SGFox5FOLwqvj-221">
          <mxGeometry relative="1" as="geometry">
            <mxPoint x="280" y="5180" as="targetPoint" />
            <Array as="points">
              <mxPoint x="943" y="5180" />
            </Array>
          </mxGeometry>
        </mxCell>
        <mxCell id="Z-240J1SGFox5FOLwqvj-221" value="Checkpoint:&amp;nbsp;&lt;br&gt;Resolve all pending Auto&#39;s&amp;nbsp;" style="whiteSpace=wrap;html=1;rounded=0;fontColor=#E4FDE1;fontStyle=0;strokeColor=#028090;strokeWidth=4;fillColor=#F45B69;startSize=26;sketch=0;" vertex="1" parent="1">
          <mxGeometry x="882.5" y="4860" width="120" height="60" as="geometry" />
        </mxCell>
        <mxCell id="Z-240J1SGFox5FOLwqvj-224" value="" style="endArrow=none;html=1;labelBackgroundColor=none;fontColor=#FFFFFF;strokeColor=#028090;strokeWidth=3;fillColor=#F45B69;endFill=0;startArrow=classic;startFill=1;" edge="1" parent="1" source="Z-240J1SGFox5FOLwqvj-43">
          <mxGeometry width="50" height="50" relative="1" as="geometry">
            <mxPoint x="-77.42000000000002" y="1550" as="sourcePoint" />
            <mxPoint x="-77.42000000000002" y="1450" as="targetPoint" />
          </mxGeometry>
        </mxCell>
        <mxCell id="Z-240J1SGFox5FOLwqvj-233" style="edgeStyle=orthogonalEdgeStyle;curved=0;rounded=1;sketch=0;orthogonalLoop=1;jettySize=auto;html=1;labelBackgroundColor=none;fontColor=#FFFFFF;startArrow=none;startFill=0;endArrow=classic;endFill=1;strokeColor=#028090;strokeWidth=3;fillColor=#F45B69;entryX=1;entryY=0.5;entryDx=0;entryDy=0;" edge="1" parent="1" target="Z-240J1SGFox5FOLwqvj-43">
          <mxGeometry relative="1" as="geometry">
            <mxPoint x="1240" y="4640" as="targetPoint" />
            <mxPoint x="1190" y="4420" as="sourcePoint" />
            <Array as="points">
              <mxPoint x="1190" y="4480" />
              <mxPoint x="1190" y="5253" />
            </Array>
          </mxGeometry>
        </mxCell>
        <mxCell id="Z-240J1SGFox5FOLwqvj-234" value="Yes" style="endArrow=none;html=1;labelBackgroundColor=none;fontColor=#FFFFFF;strokeColor=#028090;strokeWidth=3;fillColor=#F45B69;entryX=0;entryY=0.5;entryDx=0;entryDy=0;" edge="1" parent="1" target="Z-240J1SGFox5FOLwqvj-99">
          <mxGeometry width="50" height="50" relative="1" as="geometry">
            <mxPoint x="430" y="2395" as="sourcePoint" />
            <mxPoint x="620" y="2390" as="targetPoint" />
          </mxGeometry>
        </mxCell>
      </root>
    </mxGraphModel>
  </diagram>
</mxfile>
